<?xml version="1.0" encoding="utf-8"?>
<!-- Generator: Adobe Illustrator 27.3.1, SVG Export Plug-In . SVG Version: 6.00 Build 0)  -->
<svg version="1.1" id="Capa_1" xmlns="http://www.w3.org/2000/svg" xmlns:xlink="http://www.w3.org/1999/xlink" x="0px" y="0px"
	 viewBox="0 0 48 48" style="enable-background:new 0 0 48 48;" xml:space="preserve">
<style type="text/css">
	.st0{fill:#FFFFFF;}
</style>
<path class="st0" d="M28.4,32.5c-5.8-2.5-10.5-7.1-12.9-12.9l6.8-6.8L9.8,0.2L3.4,6.6C1.2,8.8,0,11.8,0,15c0,14.5,18.5,33,33,33
	c3.2,0,6.2-1.2,8.4-3.4l6.3-6.3L35.2,25.7L28.4,32.5z M38.6,41.7C37.1,43.2,35.1,44,33,44C20.5,44,4,27.5,4,15
	c0-2.1,0.8-4.1,2.3-5.6l3.5-3.5l6.9,6.9l-5.9,5.9l0.5,1.2c2.9,7.8,9.1,14,16.9,16.9l1.2,0.5l5.9-5.9l6.9,6.9L38.6,41.7z M28,4V0
	c11,0,20,9,20,20h-4C44,11.2,36.8,4,28,4z M28,12V8c6.6,0,12,5.4,12,12h-4C36,15.6,32.4,12,28,12z"/>
</svg>
