<?xml version="1.0" encoding="utf-8"?>
<!-- Generator: Adobe Illustrator 27.3.1, SVG Export Plug-In . SVG Version: 6.00 Build 0)  -->
<svg version="1.1" id="Capa_1" xmlns="http://www.w3.org/2000/svg" xmlns:xlink="http://www.w3.org/1999/xlink" x="0px" y="0px"
	 viewBox="0 0 48 48" style="enable-background:new 0 0 48 48;" xml:space="preserve">
<style type="text/css">
	.st0{fill:#FFFFFF;}
</style>
<path class="st0" d="M45.5,16.8L31.1,2.9C27.2-1,20.9-1,17,2.9L2.5,16.8C0.9,18.3,0,20.4,0,22.6V48h48V22.6
	C48,20.4,47.1,18.3,45.5,16.8z M19.8,5.8c2.4-2.3,6.2-2.3,8.5,0l13.5,12.9L28.2,32.2c-2.4,2.3-6.1,2.3-8.5,0L6.2,18.7L19.8,5.8z
	 M44,44H4V22.6c0-0.1,0-0.3,0-0.4l12.9,12.9c3.9,3.9,10.2,3.9,14.1,0L44,22.2c0,0.1,0,0.3,0,0.4L44,44z"/>
</svg>
