<?xml version="1.0" encoding="utf-8"?>
<!-- Generator: Adobe Illustrator 27.3.1, SVG Export Plug-In . SVG Version: 6.00 Build 0)  -->
<svg version="1.1" id="Capa_1" xmlns="http://www.w3.org/2000/svg" xmlns:xlink="http://www.w3.org/1999/xlink" x="0px" y="0px"
	 viewBox="0 0 42 50.2" style="enable-background:new 0 0 42 50.2;" xml:space="preserve">
<style type="text/css">
	.st0{fill:#FFFFFF;}
</style>
<g id="_01_align_center">
	<path class="st0" d="M21,50.2l-1.5-1.2C17.5,47.2,0,32.1,0,21C0,9.4,9.4,0,21,0s21,9.4,21,21c0,11.1-17.5,26.2-19.5,27.9L21,50.2z
		 M21,4.5C11.9,4.6,4.6,11.9,4.5,21c0,7,10.8,18.1,16.5,23.2C26.7,39.1,37.5,28,37.5,21C37.4,11.9,30.1,4.6,21,4.5z"/>
	<path class="st0" d="M21,29.3c-4.6,0-8.3-3.7-8.3-8.3s3.7-8.3,8.3-8.3s8.3,3.7,8.3,8.3S25.6,29.3,21,29.3z M21,16.8
		c-2.3,0-4.2,1.9-4.2,4.2s1.9,4.2,4.2,4.2s4.2-1.9,4.2-4.2S23.3,16.8,21,16.8z"/>
</g>
</svg>
