<?xml version="1.0" standalone="no"?>
<!DOCTYPE svg PUBLIC "-//W3C//DTD SVG 1.1//EN" "http://www.w3.org/Graphics/SVG/1.1/DTD/svg11.dtd">
<svg width="270" height="270" version="1.1" xmlns="http://www.w3.org/2000/svg">
	<desc>BEGIN:VCARD
VERSION:3.0
N:Fladecka;Monika
ADR;WORK:23 Marca 77E
TEL;WORK:602416254
EMAIL:monika.f@topart.pl
END:VCARD</desc>
	<g id="elements" fill="black" stroke="none">
		<rect x="0" y="0" width="6" height="6" />
		<rect x="6" y="0" width="6" height="6" />
		<rect x="12" y="0" width="6" height="6" />
		<rect x="18" y="0" width="6" height="6" />
		<rect x="24" y="0" width="6" height="6" />
		<rect x="30" y="0" width="6" height="6" />
		<rect x="36" y="0" width="6" height="6" />
		<rect x="48" y="0" width="6" height="6" />
		<rect x="54" y="0" width="6" height="6" />
		<rect x="96" y="0" width="6" height="6" />
		<rect x="114" y="0" width="6" height="6" />
		<rect x="132" y="0" width="6" height="6" />
		<rect x="144" y="0" width="6" height="6" />
		<rect x="168" y="0" width="6" height="6" />
		<rect x="174" y="0" width="6" height="6" />
		<rect x="180" y="0" width="6" height="6" />
		<rect x="198" y="0" width="6" height="6" />
		<rect x="216" y="0" width="6" height="6" />
		<rect x="228" y="0" width="6" height="6" />
		<rect x="234" y="0" width="6" height="6" />
		<rect x="240" y="0" width="6" height="6" />
		<rect x="246" y="0" width="6" height="6" />
		<rect x="252" y="0" width="6" height="6" />
		<rect x="258" y="0" width="6" height="6" />
		<rect x="264" y="0" width="6" height="6" />
		<rect x="0" y="6" width="6" height="6" />
		<rect x="36" y="6" width="6" height="6" />
		<rect x="48" y="6" width="6" height="6" />
		<rect x="72" y="6" width="6" height="6" />
		<rect x="78" y="6" width="6" height="6" />
		<rect x="96" y="6" width="6" height="6" />
		<rect x="120" y="6" width="6" height="6" />
		<rect x="162" y="6" width="6" height="6" />
		<rect x="174" y="6" width="6" height="6" />
		<rect x="180" y="6" width="6" height="6" />
		<rect x="192" y="6" width="6" height="6" />
		<rect x="210" y="6" width="6" height="6" />
		<rect x="228" y="6" width="6" height="6" />
		<rect x="264" y="6" width="6" height="6" />
		<rect x="0" y="12" width="6" height="6" />
		<rect x="12" y="12" width="6" height="6" />
		<rect x="18" y="12" width="6" height="6" />
		<rect x="24" y="12" width="6" height="6" />
		<rect x="36" y="12" width="6" height="6" />
		<rect x="54" y="12" width="6" height="6" />
		<rect x="60" y="12" width="6" height="6" />
		<rect x="66" y="12" width="6" height="6" />
		<rect x="72" y="12" width="6" height="6" />
		<rect x="96" y="12" width="6" height="6" />
		<rect x="102" y="12" width="6" height="6" />
		<rect x="108" y="12" width="6" height="6" />
		<rect x="120" y="12" width="6" height="6" />
		<rect x="144" y="12" width="6" height="6" />
		<rect x="150" y="12" width="6" height="6" />
		<rect x="162" y="12" width="6" height="6" />
		<rect x="168" y="12" width="6" height="6" />
		<rect x="174" y="12" width="6" height="6" />
		<rect x="186" y="12" width="6" height="6" />
		<rect x="210" y="12" width="6" height="6" />
		<rect x="228" y="12" width="6" height="6" />
		<rect x="240" y="12" width="6" height="6" />
		<rect x="246" y="12" width="6" height="6" />
		<rect x="252" y="12" width="6" height="6" />
		<rect x="264" y="12" width="6" height="6" />
		<rect x="0" y="18" width="6" height="6" />
		<rect x="12" y="18" width="6" height="6" />
		<rect x="18" y="18" width="6" height="6" />
		<rect x="24" y="18" width="6" height="6" />
		<rect x="36" y="18" width="6" height="6" />
		<rect x="48" y="18" width="6" height="6" />
		<rect x="60" y="18" width="6" height="6" />
		<rect x="78" y="18" width="6" height="6" />
		<rect x="84" y="18" width="6" height="6" />
		<rect x="90" y="18" width="6" height="6" />
		<rect x="120" y="18" width="6" height="6" />
		<rect x="126" y="18" width="6" height="6" />
		<rect x="150" y="18" width="6" height="6" />
		<rect x="162" y="18" width="6" height="6" />
		<rect x="168" y="18" width="6" height="6" />
		<rect x="180" y="18" width="6" height="6" />
		<rect x="186" y="18" width="6" height="6" />
		<rect x="198" y="18" width="6" height="6" />
		<rect x="210" y="18" width="6" height="6" />
		<rect x="216" y="18" width="6" height="6" />
		<rect x="228" y="18" width="6" height="6" />
		<rect x="240" y="18" width="6" height="6" />
		<rect x="246" y="18" width="6" height="6" />
		<rect x="252" y="18" width="6" height="6" />
		<rect x="264" y="18" width="6" height="6" />
		<rect x="0" y="24" width="6" height="6" />
		<rect x="12" y="24" width="6" height="6" />
		<rect x="18" y="24" width="6" height="6" />
		<rect x="24" y="24" width="6" height="6" />
		<rect x="36" y="24" width="6" height="6" />
		<rect x="54" y="24" width="6" height="6" />
		<rect x="60" y="24" width="6" height="6" />
		<rect x="66" y="24" width="6" height="6" />
		<rect x="72" y="24" width="6" height="6" />
		<rect x="78" y="24" width="6" height="6" />
		<rect x="96" y="24" width="6" height="6" />
		<rect x="108" y="24" width="6" height="6" />
		<rect x="114" y="24" width="6" height="6" />
		<rect x="120" y="24" width="6" height="6" />
		<rect x="126" y="24" width="6" height="6" />
		<rect x="132" y="24" width="6" height="6" />
		<rect x="138" y="24" width="6" height="6" />
		<rect x="144" y="24" width="6" height="6" />
		<rect x="150" y="24" width="6" height="6" />
		<rect x="156" y="24" width="6" height="6" />
		<rect x="204" y="24" width="6" height="6" />
		<rect x="210" y="24" width="6" height="6" />
		<rect x="216" y="24" width="6" height="6" />
		<rect x="228" y="24" width="6" height="6" />
		<rect x="240" y="24" width="6" height="6" />
		<rect x="246" y="24" width="6" height="6" />
		<rect x="252" y="24" width="6" height="6" />
		<rect x="264" y="24" width="6" height="6" />
		<rect x="0" y="30" width="6" height="6" />
		<rect x="36" y="30" width="6" height="6" />
		<rect x="60" y="30" width="6" height="6" />
		<rect x="72" y="30" width="6" height="6" />
		<rect x="84" y="30" width="6" height="6" />
		<rect x="90" y="30" width="6" height="6" />
		<rect x="114" y="30" width="6" height="6" />
		<rect x="120" y="30" width="6" height="6" />
		<rect x="144" y="30" width="6" height="6" />
		<rect x="150" y="30" width="6" height="6" />
		<rect x="174" y="30" width="6" height="6" />
		<rect x="192" y="30" width="6" height="6" />
		<rect x="228" y="30" width="6" height="6" />
		<rect x="264" y="30" width="6" height="6" />
		<rect x="0" y="36" width="6" height="6" />
		<rect x="6" y="36" width="6" height="6" />
		<rect x="12" y="36" width="6" height="6" />
		<rect x="18" y="36" width="6" height="6" />
		<rect x="24" y="36" width="6" height="6" />
		<rect x="30" y="36" width="6" height="6" />
		<rect x="36" y="36" width="6" height="6" />
		<rect x="48" y="36" width="6" height="6" />
		<rect x="60" y="36" width="6" height="6" />
		<rect x="72" y="36" width="6" height="6" />
		<rect x="84" y="36" width="6" height="6" />
		<rect x="96" y="36" width="6" height="6" />
		<rect x="108" y="36" width="6" height="6" />
		<rect x="120" y="36" width="6" height="6" />
		<rect x="132" y="36" width="6" height="6" />
		<rect x="144" y="36" width="6" height="6" />
		<rect x="156" y="36" width="6" height="6" />
		<rect x="168" y="36" width="6" height="6" />
		<rect x="180" y="36" width="6" height="6" />
		<rect x="192" y="36" width="6" height="6" />
		<rect x="204" y="36" width="6" height="6" />
		<rect x="216" y="36" width="6" height="6" />
		<rect x="228" y="36" width="6" height="6" />
		<rect x="234" y="36" width="6" height="6" />
		<rect x="240" y="36" width="6" height="6" />
		<rect x="246" y="36" width="6" height="6" />
		<rect x="252" y="36" width="6" height="6" />
		<rect x="258" y="36" width="6" height="6" />
		<rect x="264" y="36" width="6" height="6" />
		<rect x="48" y="42" width="6" height="6" />
		<rect x="54" y="42" width="6" height="6" />
		<rect x="60" y="42" width="6" height="6" />
		<rect x="102" y="42" width="6" height="6" />
		<rect x="120" y="42" width="6" height="6" />
		<rect x="144" y="42" width="6" height="6" />
		<rect x="150" y="42" width="6" height="6" />
		<rect x="156" y="42" width="6" height="6" />
		<rect x="174" y="42" width="6" height="6" />
		<rect x="210" y="42" width="6" height="6" />
		<rect x="216" y="42" width="6" height="6" />
		<rect x="0" y="48" width="6" height="6" />
		<rect x="12" y="48" width="6" height="6" />
		<rect x="18" y="48" width="6" height="6" />
		<rect x="30" y="48" width="6" height="6" />
		<rect x="36" y="48" width="6" height="6" />
		<rect x="42" y="48" width="6" height="6" />
		<rect x="54" y="48" width="6" height="6" />
		<rect x="60" y="48" width="6" height="6" />
		<rect x="66" y="48" width="6" height="6" />
		<rect x="114" y="48" width="6" height="6" />
		<rect x="120" y="48" width="6" height="6" />
		<rect x="126" y="48" width="6" height="6" />
		<rect x="132" y="48" width="6" height="6" />
		<rect x="138" y="48" width="6" height="6" />
		<rect x="144" y="48" width="6" height="6" />
		<rect x="150" y="48" width="6" height="6" />
		<rect x="162" y="48" width="6" height="6" />
		<rect x="174" y="48" width="6" height="6" />
		<rect x="192" y="48" width="6" height="6" />
		<rect x="204" y="48" width="6" height="6" />
		<rect x="216" y="48" width="6" height="6" />
		<rect x="228" y="48" width="6" height="6" />
		<rect x="246" y="48" width="6" height="6" />
		<rect x="258" y="48" width="6" height="6" />
		<rect x="264" y="48" width="6" height="6" />
		<rect x="6" y="54" width="6" height="6" />
		<rect x="12" y="54" width="6" height="6" />
		<rect x="24" y="54" width="6" height="6" />
		<rect x="30" y="54" width="6" height="6" />
		<rect x="42" y="54" width="6" height="6" />
		<rect x="48" y="54" width="6" height="6" />
		<rect x="66" y="54" width="6" height="6" />
		<rect x="72" y="54" width="6" height="6" />
		<rect x="96" y="54" width="6" height="6" />
		<rect x="108" y="54" width="6" height="6" />
		<rect x="114" y="54" width="6" height="6" />
		<rect x="120" y="54" width="6" height="6" />
		<rect x="126" y="54" width="6" height="6" />
		<rect x="138" y="54" width="6" height="6" />
		<rect x="144" y="54" width="6" height="6" />
		<rect x="162" y="54" width="6" height="6" />
		<rect x="168" y="54" width="6" height="6" />
		<rect x="180" y="54" width="6" height="6" />
		<rect x="186" y="54" width="6" height="6" />
		<rect x="192" y="54" width="6" height="6" />
		<rect x="198" y="54" width="6" height="6" />
		<rect x="204" y="54" width="6" height="6" />
		<rect x="210" y="54" width="6" height="6" />
		<rect x="216" y="54" width="6" height="6" />
		<rect x="222" y="54" width="6" height="6" />
		<rect x="228" y="54" width="6" height="6" />
		<rect x="240" y="54" width="6" height="6" />
		<rect x="252" y="54" width="6" height="6" />
		<rect x="258" y="54" width="6" height="6" />
		<rect x="6" y="60" width="6" height="6" />
		<rect x="12" y="60" width="6" height="6" />
		<rect x="18" y="60" width="6" height="6" />
		<rect x="24" y="60" width="6" height="6" />
		<rect x="36" y="60" width="6" height="6" />
		<rect x="42" y="60" width="6" height="6" />
		<rect x="48" y="60" width="6" height="6" />
		<rect x="54" y="60" width="6" height="6" />
		<rect x="78" y="60" width="6" height="6" />
		<rect x="90" y="60" width="6" height="6" />
		<rect x="96" y="60" width="6" height="6" />
		<rect x="102" y="60" width="6" height="6" />
		<rect x="120" y="60" width="6" height="6" />
		<rect x="144" y="60" width="6" height="6" />
		<rect x="156" y="60" width="6" height="6" />
		<rect x="174" y="60" width="6" height="6" />
		<rect x="186" y="60" width="6" height="6" />
		<rect x="216" y="60" width="6" height="6" />
		<rect x="222" y="60" width="6" height="6" />
		<rect x="240" y="60" width="6" height="6" />
		<rect x="252" y="60" width="6" height="6" />
		<rect x="258" y="60" width="6" height="6" />
		<rect x="0" y="66" width="6" height="6" />
		<rect x="6" y="66" width="6" height="6" />
		<rect x="18" y="66" width="6" height="6" />
		<rect x="30" y="66" width="6" height="6" />
		<rect x="48" y="66" width="6" height="6" />
		<rect x="54" y="66" width="6" height="6" />
		<rect x="78" y="66" width="6" height="6" />
		<rect x="102" y="66" width="6" height="6" />
		<rect x="132" y="66" width="6" height="6" />
		<rect x="138" y="66" width="6" height="6" />
		<rect x="150" y="66" width="6" height="6" />
		<rect x="156" y="66" width="6" height="6" />
		<rect x="174" y="66" width="6" height="6" />
		<rect x="180" y="66" width="6" height="6" />
		<rect x="186" y="66" width="6" height="6" />
		<rect x="210" y="66" width="6" height="6" />
		<rect x="228" y="66" width="6" height="6" />
		<rect x="246" y="66" width="6" height="6" />
		<rect x="264" y="66" width="6" height="6" />
		<rect x="18" y="72" width="6" height="6" />
		<rect x="30" y="72" width="6" height="6" />
		<rect x="36" y="72" width="6" height="6" />
		<rect x="54" y="72" width="6" height="6" />
		<rect x="78" y="72" width="6" height="6" />
		<rect x="84" y="72" width="6" height="6" />
		<rect x="102" y="72" width="6" height="6" />
		<rect x="108" y="72" width="6" height="6" />
		<rect x="114" y="72" width="6" height="6" />
		<rect x="120" y="72" width="6" height="6" />
		<rect x="156" y="72" width="6" height="6" />
		<rect x="162" y="72" width="6" height="6" />
		<rect x="168" y="72" width="6" height="6" />
		<rect x="186" y="72" width="6" height="6" />
		<rect x="204" y="72" width="6" height="6" />
		<rect x="222" y="72" width="6" height="6" />
		<rect x="258" y="72" width="6" height="6" />
		<rect x="264" y="72" width="6" height="6" />
		<rect x="18" y="78" width="6" height="6" />
		<rect x="24" y="78" width="6" height="6" />
		<rect x="48" y="78" width="6" height="6" />
		<rect x="72" y="78" width="6" height="6" />
		<rect x="78" y="78" width="6" height="6" />
		<rect x="84" y="78" width="6" height="6" />
		<rect x="90" y="78" width="6" height="6" />
		<rect x="102" y="78" width="6" height="6" />
		<rect x="108" y="78" width="6" height="6" />
		<rect x="120" y="78" width="6" height="6" />
		<rect x="126" y="78" width="6" height="6" />
		<rect x="150" y="78" width="6" height="6" />
		<rect x="156" y="78" width="6" height="6" />
		<rect x="162" y="78" width="6" height="6" />
		<rect x="174" y="78" width="6" height="6" />
		<rect x="180" y="78" width="6" height="6" />
		<rect x="186" y="78" width="6" height="6" />
		<rect x="192" y="78" width="6" height="6" />
		<rect x="198" y="78" width="6" height="6" />
		<rect x="222" y="78" width="6" height="6" />
		<rect x="228" y="78" width="6" height="6" />
		<rect x="234" y="78" width="6" height="6" />
		<rect x="18" y="84" width="6" height="6" />
		<rect x="24" y="84" width="6" height="6" />
		<rect x="36" y="84" width="6" height="6" />
		<rect x="48" y="84" width="6" height="6" />
		<rect x="54" y="84" width="6" height="6" />
		<rect x="78" y="84" width="6" height="6" />
		<rect x="84" y="84" width="6" height="6" />
		<rect x="102" y="84" width="6" height="6" />
		<rect x="108" y="84" width="6" height="6" />
		<rect x="114" y="84" width="6" height="6" />
		<rect x="156" y="84" width="6" height="6" />
		<rect x="168" y="84" width="6" height="6" />
		<rect x="186" y="84" width="6" height="6" />
		<rect x="210" y="84" width="6" height="6" />
		<rect x="222" y="84" width="6" height="6" />
		<rect x="228" y="84" width="6" height="6" />
		<rect x="234" y="84" width="6" height="6" />
		<rect x="252" y="84" width="6" height="6" />
		<rect x="258" y="84" width="6" height="6" />
		<rect x="264" y="84" width="6" height="6" />
		<rect x="0" y="90" width="6" height="6" />
		<rect x="6" y="90" width="6" height="6" />
		<rect x="18" y="90" width="6" height="6" />
		<rect x="30" y="90" width="6" height="6" />
		<rect x="42" y="90" width="6" height="6" />
		<rect x="54" y="90" width="6" height="6" />
		<rect x="78" y="90" width="6" height="6" />
		<rect x="84" y="90" width="6" height="6" />
		<rect x="90" y="90" width="6" height="6" />
		<rect x="108" y="90" width="6" height="6" />
		<rect x="114" y="90" width="6" height="6" />
		<rect x="126" y="90" width="6" height="6" />
		<rect x="132" y="90" width="6" height="6" />
		<rect x="138" y="90" width="6" height="6" />
		<rect x="144" y="90" width="6" height="6" />
		<rect x="156" y="90" width="6" height="6" />
		<rect x="162" y="90" width="6" height="6" />
		<rect x="174" y="90" width="6" height="6" />
		<rect x="180" y="90" width="6" height="6" />
		<rect x="192" y="90" width="6" height="6" />
		<rect x="228" y="90" width="6" height="6" />
		<rect x="234" y="90" width="6" height="6" />
		<rect x="246" y="90" width="6" height="6" />
		<rect x="258" y="90" width="6" height="6" />
		<rect x="0" y="96" width="6" height="6" />
		<rect x="12" y="96" width="6" height="6" />
		<rect x="30" y="96" width="6" height="6" />
		<rect x="36" y="96" width="6" height="6" />
		<rect x="42" y="96" width="6" height="6" />
		<rect x="54" y="96" width="6" height="6" />
		<rect x="60" y="96" width="6" height="6" />
		<rect x="72" y="96" width="6" height="6" />
		<rect x="96" y="96" width="6" height="6" />
		<rect x="102" y="96" width="6" height="6" />
		<rect x="114" y="96" width="6" height="6" />
		<rect x="120" y="96" width="6" height="6" />
		<rect x="126" y="96" width="6" height="6" />
		<rect x="132" y="96" width="6" height="6" />
		<rect x="174" y="96" width="6" height="6" />
		<rect x="180" y="96" width="6" height="6" />
		<rect x="186" y="96" width="6" height="6" />
		<rect x="192" y="96" width="6" height="6" />
		<rect x="210" y="96" width="6" height="6" />
		<rect x="234" y="96" width="6" height="6" />
		<rect x="246" y="96" width="6" height="6" />
		<rect x="252" y="96" width="6" height="6" />
		<rect x="258" y="96" width="6" height="6" />
		<rect x="12" y="102" width="6" height="6" />
		<rect x="24" y="102" width="6" height="6" />
		<rect x="30" y="102" width="6" height="6" />
		<rect x="42" y="102" width="6" height="6" />
		<rect x="54" y="102" width="6" height="6" />
		<rect x="66" y="102" width="6" height="6" />
		<rect x="72" y="102" width="6" height="6" />
		<rect x="78" y="102" width="6" height="6" />
		<rect x="84" y="102" width="6" height="6" />
		<rect x="96" y="102" width="6" height="6" />
		<rect x="108" y="102" width="6" height="6" />
		<rect x="120" y="102" width="6" height="6" />
		<rect x="126" y="102" width="6" height="6" />
		<rect x="144" y="102" width="6" height="6" />
		<rect x="150" y="102" width="6" height="6" />
		<rect x="168" y="102" width="6" height="6" />
		<rect x="174" y="102" width="6" height="6" />
		<rect x="180" y="102" width="6" height="6" />
		<rect x="192" y="102" width="6" height="6" />
		<rect x="204" y="102" width="6" height="6" />
		<rect x="222" y="102" width="6" height="6" />
		<rect x="228" y="102" width="6" height="6" />
		<rect x="234" y="102" width="6" height="6" />
		<rect x="240" y="102" width="6" height="6" />
		<rect x="246" y="102" width="6" height="6" />
		<rect x="252" y="102" width="6" height="6" />
		<rect x="258" y="102" width="6" height="6" />
		<rect x="264" y="102" width="6" height="6" />
		<rect x="0" y="108" width="6" height="6" />
		<rect x="6" y="108" width="6" height="6" />
		<rect x="12" y="108" width="6" height="6" />
		<rect x="18" y="108" width="6" height="6" />
		<rect x="36" y="108" width="6" height="6" />
		<rect x="42" y="108" width="6" height="6" />
		<rect x="48" y="108" width="6" height="6" />
		<rect x="54" y="108" width="6" height="6" />
		<rect x="66" y="108" width="6" height="6" />
		<rect x="90" y="108" width="6" height="6" />
		<rect x="126" y="108" width="6" height="6" />
		<rect x="132" y="108" width="6" height="6" />
		<rect x="174" y="108" width="6" height="6" />
		<rect x="180" y="108" width="6" height="6" />
		<rect x="186" y="108" width="6" height="6" />
		<rect x="198" y="108" width="6" height="6" />
		<rect x="210" y="108" width="6" height="6" />
		<rect x="216" y="108" width="6" height="6" />
		<rect x="234" y="108" width="6" height="6" />
		<rect x="246" y="108" width="6" height="6" />
		<rect x="252" y="108" width="6" height="6" />
		<rect x="258" y="108" width="6" height="6" />
		<rect x="264" y="108" width="6" height="6" />
		<rect x="0" y="114" width="6" height="6" />
		<rect x="18" y="114" width="6" height="6" />
		<rect x="30" y="114" width="6" height="6" />
		<rect x="42" y="114" width="6" height="6" />
		<rect x="60" y="114" width="6" height="6" />
		<rect x="72" y="114" width="6" height="6" />
		<rect x="84" y="114" width="6" height="6" />
		<rect x="96" y="114" width="6" height="6" />
		<rect x="102" y="114" width="6" height="6" />
		<rect x="108" y="114" width="6" height="6" />
		<rect x="114" y="114" width="6" height="6" />
		<rect x="120" y="114" width="6" height="6" />
		<rect x="150" y="114" width="6" height="6" />
		<rect x="156" y="114" width="6" height="6" />
		<rect x="162" y="114" width="6" height="6" />
		<rect x="168" y="114" width="6" height="6" />
		<rect x="174" y="114" width="6" height="6" />
		<rect x="198" y="114" width="6" height="6" />
		<rect x="204" y="114" width="6" height="6" />
		<rect x="222" y="114" width="6" height="6" />
		<rect x="252" y="114" width="6" height="6" />
		<rect x="24" y="120" width="6" height="6" />
		<rect x="30" y="120" width="6" height="6" />
		<rect x="36" y="120" width="6" height="6" />
		<rect x="42" y="120" width="6" height="6" />
		<rect x="48" y="120" width="6" height="6" />
		<rect x="66" y="120" width="6" height="6" />
		<rect x="72" y="120" width="6" height="6" />
		<rect x="96" y="120" width="6" height="6" />
		<rect x="108" y="120" width="6" height="6" />
		<rect x="114" y="120" width="6" height="6" />
		<rect x="120" y="120" width="6" height="6" />
		<rect x="126" y="120" width="6" height="6" />
		<rect x="132" y="120" width="6" height="6" />
		<rect x="138" y="120" width="6" height="6" />
		<rect x="144" y="120" width="6" height="6" />
		<rect x="150" y="120" width="6" height="6" />
		<rect x="180" y="120" width="6" height="6" />
		<rect x="186" y="120" width="6" height="6" />
		<rect x="216" y="120" width="6" height="6" />
		<rect x="222" y="120" width="6" height="6" />
		<rect x="228" y="120" width="6" height="6" />
		<rect x="234" y="120" width="6" height="6" />
		<rect x="240" y="120" width="6" height="6" />
		<rect x="252" y="120" width="6" height="6" />
		<rect x="6" y="126" width="6" height="6" />
		<rect x="18" y="126" width="6" height="6" />
		<rect x="24" y="126" width="6" height="6" />
		<rect x="48" y="126" width="6" height="6" />
		<rect x="66" y="126" width="6" height="6" />
		<rect x="84" y="126" width="6" height="6" />
		<rect x="90" y="126" width="6" height="6" />
		<rect x="108" y="126" width="6" height="6" />
		<rect x="114" y="126" width="6" height="6" />
		<rect x="120" y="126" width="6" height="6" />
		<rect x="144" y="126" width="6" height="6" />
		<rect x="180" y="126" width="6" height="6" />
		<rect x="198" y="126" width="6" height="6" />
		<rect x="204" y="126" width="6" height="6" />
		<rect x="216" y="126" width="6" height="6" />
		<rect x="240" y="126" width="6" height="6" />
		<rect x="246" y="126" width="6" height="6" />
		<rect x="252" y="126" width="6" height="6" />
		<rect x="264" y="126" width="6" height="6" />
		<rect x="12" y="132" width="6" height="6" />
		<rect x="24" y="132" width="6" height="6" />
		<rect x="36" y="132" width="6" height="6" />
		<rect x="48" y="132" width="6" height="6" />
		<rect x="54" y="132" width="6" height="6" />
		<rect x="60" y="132" width="6" height="6" />
		<rect x="66" y="132" width="6" height="6" />
		<rect x="72" y="132" width="6" height="6" />
		<rect x="90" y="132" width="6" height="6" />
		<rect x="108" y="132" width="6" height="6" />
		<rect x="114" y="132" width="6" height="6" />
		<rect x="120" y="132" width="6" height="6" />
		<rect x="132" y="132" width="6" height="6" />
		<rect x="144" y="132" width="6" height="6" />
		<rect x="156" y="132" width="6" height="6" />
		<rect x="162" y="132" width="6" height="6" />
		<rect x="168" y="132" width="6" height="6" />
		<rect x="180" y="132" width="6" height="6" />
		<rect x="186" y="132" width="6" height="6" />
		<rect x="216" y="132" width="6" height="6" />
		<rect x="228" y="132" width="6" height="6" />
		<rect x="240" y="132" width="6" height="6" />
		<rect x="258" y="132" width="6" height="6" />
		<rect x="264" y="132" width="6" height="6" />
		<rect x="0" y="138" width="6" height="6" />
		<rect x="12" y="138" width="6" height="6" />
		<rect x="24" y="138" width="6" height="6" />
		<rect x="48" y="138" width="6" height="6" />
		<rect x="54" y="138" width="6" height="6" />
		<rect x="78" y="138" width="6" height="6" />
		<rect x="108" y="138" width="6" height="6" />
		<rect x="120" y="138" width="6" height="6" />
		<rect x="144" y="138" width="6" height="6" />
		<rect x="186" y="138" width="6" height="6" />
		<rect x="204" y="138" width="6" height="6" />
		<rect x="210" y="138" width="6" height="6" />
		<rect x="216" y="138" width="6" height="6" />
		<rect x="240" y="138" width="6" height="6" />
		<rect x="246" y="138" width="6" height="6" />
		<rect x="252" y="138" width="6" height="6" />
		<rect x="6" y="144" width="6" height="6" />
		<rect x="12" y="144" width="6" height="6" />
		<rect x="18" y="144" width="6" height="6" />
		<rect x="24" y="144" width="6" height="6" />
		<rect x="30" y="144" width="6" height="6" />
		<rect x="36" y="144" width="6" height="6" />
		<rect x="42" y="144" width="6" height="6" />
		<rect x="48" y="144" width="6" height="6" />
		<rect x="54" y="144" width="6" height="6" />
		<rect x="60" y="144" width="6" height="6" />
		<rect x="66" y="144" width="6" height="6" />
		<rect x="72" y="144" width="6" height="6" />
		<rect x="84" y="144" width="6" height="6" />
		<rect x="90" y="144" width="6" height="6" />
		<rect x="102" y="144" width="6" height="6" />
		<rect x="120" y="144" width="6" height="6" />
		<rect x="126" y="144" width="6" height="6" />
		<rect x="132" y="144" width="6" height="6" />
		<rect x="138" y="144" width="6" height="6" />
		<rect x="144" y="144" width="6" height="6" />
		<rect x="168" y="144" width="6" height="6" />
		<rect x="180" y="144" width="6" height="6" />
		<rect x="186" y="144" width="6" height="6" />
		<rect x="204" y="144" width="6" height="6" />
		<rect x="216" y="144" width="6" height="6" />
		<rect x="222" y="144" width="6" height="6" />
		<rect x="228" y="144" width="6" height="6" />
		<rect x="234" y="144" width="6" height="6" />
		<rect x="240" y="144" width="6" height="6" />
		<rect x="252" y="144" width="6" height="6" />
		<rect x="258" y="144" width="6" height="6" />
		<rect x="6" y="150" width="6" height="6" />
		<rect x="12" y="150" width="6" height="6" />
		<rect x="24" y="150" width="6" height="6" />
		<rect x="42" y="150" width="6" height="6" />
		<rect x="48" y="150" width="6" height="6" />
		<rect x="66" y="150" width="6" height="6" />
		<rect x="72" y="150" width="6" height="6" />
		<rect x="96" y="150" width="6" height="6" />
		<rect x="102" y="150" width="6" height="6" />
		<rect x="114" y="150" width="6" height="6" />
		<rect x="126" y="150" width="6" height="6" />
		<rect x="132" y="150" width="6" height="6" />
		<rect x="156" y="150" width="6" height="6" />
		<rect x="168" y="150" width="6" height="6" />
		<rect x="174" y="150" width="6" height="6" />
		<rect x="186" y="150" width="6" height="6" />
		<rect x="198" y="150" width="6" height="6" />
		<rect x="210" y="150" width="6" height="6" />
		<rect x="216" y="150" width="6" height="6" />
		<rect x="228" y="150" width="6" height="6" />
		<rect x="234" y="150" width="6" height="6" />
		<rect x="246" y="150" width="6" height="6" />
		<rect x="252" y="150" width="6" height="6" />
		<rect x="258" y="150" width="6" height="6" />
		<rect x="264" y="150" width="6" height="6" />
		<rect x="24" y="156" width="6" height="6" />
		<rect x="30" y="156" width="6" height="6" />
		<rect x="36" y="156" width="6" height="6" />
		<rect x="42" y="156" width="6" height="6" />
		<rect x="54" y="156" width="6" height="6" />
		<rect x="60" y="156" width="6" height="6" />
		<rect x="72" y="156" width="6" height="6" />
		<rect x="90" y="156" width="6" height="6" />
		<rect x="96" y="156" width="6" height="6" />
		<rect x="108" y="156" width="6" height="6" />
		<rect x="114" y="156" width="6" height="6" />
		<rect x="132" y="156" width="6" height="6" />
		<rect x="162" y="156" width="6" height="6" />
		<rect x="168" y="156" width="6" height="6" />
		<rect x="180" y="156" width="6" height="6" />
		<rect x="186" y="156" width="6" height="6" />
		<rect x="204" y="156" width="6" height="6" />
		<rect x="210" y="156" width="6" height="6" />
		<rect x="222" y="156" width="6" height="6" />
		<rect x="234" y="156" width="6" height="6" />
		<rect x="246" y="156" width="6" height="6" />
		<rect x="252" y="156" width="6" height="6" />
		<rect x="258" y="156" width="6" height="6" />
		<rect x="264" y="156" width="6" height="6" />
		<rect x="12" y="162" width="6" height="6" />
		<rect x="18" y="162" width="6" height="6" />
		<rect x="24" y="162" width="6" height="6" />
		<rect x="48" y="162" width="6" height="6" />
		<rect x="60" y="162" width="6" height="6" />
		<rect x="66" y="162" width="6" height="6" />
		<rect x="72" y="162" width="6" height="6" />
		<rect x="84" y="162" width="6" height="6" />
		<rect x="90" y="162" width="6" height="6" />
		<rect x="96" y="162" width="6" height="6" />
		<rect x="102" y="162" width="6" height="6" />
		<rect x="108" y="162" width="6" height="6" />
		<rect x="114" y="162" width="6" height="6" />
		<rect x="120" y="162" width="6" height="6" />
		<rect x="144" y="162" width="6" height="6" />
		<rect x="150" y="162" width="6" height="6" />
		<rect x="156" y="162" width="6" height="6" />
		<rect x="162" y="162" width="6" height="6" />
		<rect x="174" y="162" width="6" height="6" />
		<rect x="180" y="162" width="6" height="6" />
		<rect x="198" y="162" width="6" height="6" />
		<rect x="216" y="162" width="6" height="6" />
		<rect x="228" y="162" width="6" height="6" />
		<rect x="234" y="162" width="6" height="6" />
		<rect x="240" y="162" width="6" height="6" />
		<rect x="246" y="162" width="6" height="6" />
		<rect x="252" y="162" width="6" height="6" />
		<rect x="258" y="162" width="6" height="6" />
		<rect x="0" y="168" width="6" height="6" />
		<rect x="12" y="168" width="6" height="6" />
		<rect x="36" y="168" width="6" height="6" />
		<rect x="48" y="168" width="6" height="6" />
		<rect x="66" y="168" width="6" height="6" />
		<rect x="78" y="168" width="6" height="6" />
		<rect x="90" y="168" width="6" height="6" />
		<rect x="108" y="168" width="6" height="6" />
		<rect x="126" y="168" width="6" height="6" />
		<rect x="132" y="168" width="6" height="6" />
		<rect x="168" y="168" width="6" height="6" />
		<rect x="186" y="168" width="6" height="6" />
		<rect x="192" y="168" width="6" height="6" />
		<rect x="198" y="168" width="6" height="6" />
		<rect x="216" y="168" width="6" height="6" />
		<rect x="240" y="168" width="6" height="6" />
		<rect x="246" y="168" width="6" height="6" />
		<rect x="252" y="168" width="6" height="6" />
		<rect x="258" y="168" width="6" height="6" />
		<rect x="264" y="168" width="6" height="6" />
		<rect x="24" y="174" width="6" height="6" />
		<rect x="48" y="174" width="6" height="6" />
		<rect x="54" y="174" width="6" height="6" />
		<rect x="72" y="174" width="6" height="6" />
		<rect x="84" y="174" width="6" height="6" />
		<rect x="90" y="174" width="6" height="6" />
		<rect x="114" y="174" width="6" height="6" />
		<rect x="120" y="174" width="6" height="6" />
		<rect x="132" y="174" width="6" height="6" />
		<rect x="138" y="174" width="6" height="6" />
		<rect x="144" y="174" width="6" height="6" />
		<rect x="156" y="174" width="6" height="6" />
		<rect x="162" y="174" width="6" height="6" />
		<rect x="168" y="174" width="6" height="6" />
		<rect x="174" y="174" width="6" height="6" />
		<rect x="180" y="174" width="6" height="6" />
		<rect x="186" y="174" width="6" height="6" />
		<rect x="192" y="174" width="6" height="6" />
		<rect x="204" y="174" width="6" height="6" />
		<rect x="234" y="174" width="6" height="6" />
		<rect x="252" y="174" width="6" height="6" />
		<rect x="258" y="174" width="6" height="6" />
		<rect x="0" y="180" width="6" height="6" />
		<rect x="12" y="180" width="6" height="6" />
		<rect x="18" y="180" width="6" height="6" />
		<rect x="24" y="180" width="6" height="6" />
		<rect x="36" y="180" width="6" height="6" />
		<rect x="42" y="180" width="6" height="6" />
		<rect x="48" y="180" width="6" height="6" />
		<rect x="54" y="180" width="6" height="6" />
		<rect x="66" y="180" width="6" height="6" />
		<rect x="84" y="180" width="6" height="6" />
		<rect x="96" y="180" width="6" height="6" />
		<rect x="114" y="180" width="6" height="6" />
		<rect x="120" y="180" width="6" height="6" />
		<rect x="126" y="180" width="6" height="6" />
		<rect x="132" y="180" width="6" height="6" />
		<rect x="150" y="180" width="6" height="6" />
		<rect x="156" y="180" width="6" height="6" />
		<rect x="168" y="180" width="6" height="6" />
		<rect x="180" y="180" width="6" height="6" />
		<rect x="192" y="180" width="6" height="6" />
		<rect x="198" y="180" width="6" height="6" />
		<rect x="210" y="180" width="6" height="6" />
		<rect x="216" y="180" width="6" height="6" />
		<rect x="222" y="180" width="6" height="6" />
		<rect x="228" y="180" width="6" height="6" />
		<rect x="252" y="180" width="6" height="6" />
		<rect x="264" y="180" width="6" height="6" />
		<rect x="6" y="186" width="6" height="6" />
		<rect x="12" y="186" width="6" height="6" />
		<rect x="24" y="186" width="6" height="6" />
		<rect x="30" y="186" width="6" height="6" />
		<rect x="48" y="186" width="6" height="6" />
		<rect x="54" y="186" width="6" height="6" />
		<rect x="60" y="186" width="6" height="6" />
		<rect x="72" y="186" width="6" height="6" />
		<rect x="90" y="186" width="6" height="6" />
		<rect x="96" y="186" width="6" height="6" />
		<rect x="102" y="186" width="6" height="6" />
		<rect x="108" y="186" width="6" height="6" />
		<rect x="126" y="186" width="6" height="6" />
		<rect x="138" y="186" width="6" height="6" />
		<rect x="144" y="186" width="6" height="6" />
		<rect x="156" y="186" width="6" height="6" />
		<rect x="174" y="186" width="6" height="6" />
		<rect x="180" y="186" width="6" height="6" />
		<rect x="186" y="186" width="6" height="6" />
		<rect x="192" y="186" width="6" height="6" />
		<rect x="198" y="186" width="6" height="6" />
		<rect x="204" y="186" width="6" height="6" />
		<rect x="216" y="186" width="6" height="6" />
		<rect x="222" y="186" width="6" height="6" />
		<rect x="228" y="186" width="6" height="6" />
		<rect x="234" y="186" width="6" height="6" />
		<rect x="240" y="186" width="6" height="6" />
		<rect x="246" y="186" width="6" height="6" />
		<rect x="252" y="186" width="6" height="6" />
		<rect x="6" y="192" width="6" height="6" />
		<rect x="12" y="192" width="6" height="6" />
		<rect x="18" y="192" width="6" height="6" />
		<rect x="36" y="192" width="6" height="6" />
		<rect x="42" y="192" width="6" height="6" />
		<rect x="54" y="192" width="6" height="6" />
		<rect x="66" y="192" width="6" height="6" />
		<rect x="78" y="192" width="6" height="6" />
		<rect x="90" y="192" width="6" height="6" />
		<rect x="96" y="192" width="6" height="6" />
		<rect x="102" y="192" width="6" height="6" />
		<rect x="108" y="192" width="6" height="6" />
		<rect x="120" y="192" width="6" height="6" />
		<rect x="126" y="192" width="6" height="6" />
		<rect x="132" y="192" width="6" height="6" />
		<rect x="138" y="192" width="6" height="6" />
		<rect x="162" y="192" width="6" height="6" />
		<rect x="168" y="192" width="6" height="6" />
		<rect x="174" y="192" width="6" height="6" />
		<rect x="180" y="192" width="6" height="6" />
		<rect x="186" y="192" width="6" height="6" />
		<rect x="228" y="192" width="6" height="6" />
		<rect x="252" y="192" width="6" height="6" />
		<rect x="258" y="192" width="6" height="6" />
		<rect x="0" y="198" width="6" height="6" />
		<rect x="6" y="198" width="6" height="6" />
		<rect x="12" y="198" width="6" height="6" />
		<rect x="18" y="198" width="6" height="6" />
		<rect x="30" y="198" width="6" height="6" />
		<rect x="42" y="198" width="6" height="6" />
		<rect x="66" y="198" width="6" height="6" />
		<rect x="72" y="198" width="6" height="6" />
		<rect x="90" y="198" width="6" height="6" />
		<rect x="102" y="198" width="6" height="6" />
		<rect x="126" y="198" width="6" height="6" />
		<rect x="144" y="198" width="6" height="6" />
		<rect x="162" y="198" width="6" height="6" />
		<rect x="168" y="198" width="6" height="6" />
		<rect x="174" y="198" width="6" height="6" />
		<rect x="180" y="198" width="6" height="6" />
		<rect x="198" y="198" width="6" height="6" />
		<rect x="204" y="198" width="6" height="6" />
		<rect x="210" y="198" width="6" height="6" />
		<rect x="222" y="198" width="6" height="6" />
		<rect x="228" y="198" width="6" height="6" />
		<rect x="234" y="198" width="6" height="6" />
		<rect x="246" y="198" width="6" height="6" />
		<rect x="24" y="204" width="6" height="6" />
		<rect x="36" y="204" width="6" height="6" />
		<rect x="42" y="204" width="6" height="6" />
		<rect x="54" y="204" width="6" height="6" />
		<rect x="72" y="204" width="6" height="6" />
		<rect x="78" y="204" width="6" height="6" />
		<rect x="84" y="204" width="6" height="6" />
		<rect x="90" y="204" width="6" height="6" />
		<rect x="102" y="204" width="6" height="6" />
		<rect x="108" y="204" width="6" height="6" />
		<rect x="120" y="204" width="6" height="6" />
		<rect x="126" y="204" width="6" height="6" />
		<rect x="132" y="204" width="6" height="6" />
		<rect x="138" y="204" width="6" height="6" />
		<rect x="156" y="204" width="6" height="6" />
		<rect x="168" y="204" width="6" height="6" />
		<rect x="174" y="204" width="6" height="6" />
		<rect x="198" y="204" width="6" height="6" />
		<rect x="204" y="204" width="6" height="6" />
		<rect x="216" y="204" width="6" height="6" />
		<rect x="222" y="204" width="6" height="6" />
		<rect x="228" y="204" width="6" height="6" />
		<rect x="234" y="204" width="6" height="6" />
		<rect x="264" y="204" width="6" height="6" />
		<rect x="6" y="210" width="6" height="6" />
		<rect x="12" y="210" width="6" height="6" />
		<rect x="18" y="210" width="6" height="6" />
		<rect x="24" y="210" width="6" height="6" />
		<rect x="42" y="210" width="6" height="6" />
		<rect x="48" y="210" width="6" height="6" />
		<rect x="66" y="210" width="6" height="6" />
		<rect x="78" y="210" width="6" height="6" />
		<rect x="120" y="210" width="6" height="6" />
		<rect x="126" y="210" width="6" height="6" />
		<rect x="144" y="210" width="6" height="6" />
		<rect x="150" y="210" width="6" height="6" />
		<rect x="156" y="210" width="6" height="6" />
		<rect x="168" y="210" width="6" height="6" />
		<rect x="180" y="210" width="6" height="6" />
		<rect x="186" y="210" width="6" height="6" />
		<rect x="198" y="210" width="6" height="6" />
		<rect x="210" y="210" width="6" height="6" />
		<rect x="222" y="210" width="6" height="6" />
		<rect x="228" y="210" width="6" height="6" />
		<rect x="234" y="210" width="6" height="6" />
		<rect x="246" y="210" width="6" height="6" />
		<rect x="252" y="210" width="6" height="6" />
		<rect x="258" y="210" width="6" height="6" />
		<rect x="0" y="216" width="6" height="6" />
		<rect x="18" y="216" width="6" height="6" />
		<rect x="24" y="216" width="6" height="6" />
		<rect x="36" y="216" width="6" height="6" />
		<rect x="48" y="216" width="6" height="6" />
		<rect x="54" y="216" width="6" height="6" />
		<rect x="66" y="216" width="6" height="6" />
		<rect x="72" y="216" width="6" height="6" />
		<rect x="90" y="216" width="6" height="6" />
		<rect x="102" y="216" width="6" height="6" />
		<rect x="108" y="216" width="6" height="6" />
		<rect x="120" y="216" width="6" height="6" />
		<rect x="126" y="216" width="6" height="6" />
		<rect x="132" y="216" width="6" height="6" />
		<rect x="138" y="216" width="6" height="6" />
		<rect x="144" y="216" width="6" height="6" />
		<rect x="150" y="216" width="6" height="6" />
		<rect x="174" y="216" width="6" height="6" />
		<rect x="216" y="216" width="6" height="6" />
		<rect x="222" y="216" width="6" height="6" />
		<rect x="228" y="216" width="6" height="6" />
		<rect x="234" y="216" width="6" height="6" />
		<rect x="240" y="216" width="6" height="6" />
		<rect x="252" y="216" width="6" height="6" />
		<rect x="258" y="216" width="6" height="6" />
		<rect x="48" y="222" width="6" height="6" />
		<rect x="60" y="222" width="6" height="6" />
		<rect x="66" y="222" width="6" height="6" />
		<rect x="72" y="222" width="6" height="6" />
		<rect x="96" y="222" width="6" height="6" />
		<rect x="120" y="222" width="6" height="6" />
		<rect x="144" y="222" width="6" height="6" />
		<rect x="150" y="222" width="6" height="6" />
		<rect x="156" y="222" width="6" height="6" />
		<rect x="174" y="222" width="6" height="6" />
		<rect x="198" y="222" width="6" height="6" />
		<rect x="204" y="222" width="6" height="6" />
		<rect x="216" y="222" width="6" height="6" />
		<rect x="240" y="222" width="6" height="6" />
		<rect x="0" y="228" width="6" height="6" />
		<rect x="6" y="228" width="6" height="6" />
		<rect x="12" y="228" width="6" height="6" />
		<rect x="18" y="228" width="6" height="6" />
		<rect x="24" y="228" width="6" height="6" />
		<rect x="30" y="228" width="6" height="6" />
		<rect x="36" y="228" width="6" height="6" />
		<rect x="48" y="228" width="6" height="6" />
		<rect x="54" y="228" width="6" height="6" />
		<rect x="66" y="228" width="6" height="6" />
		<rect x="78" y="228" width="6" height="6" />
		<rect x="84" y="228" width="6" height="6" />
		<rect x="90" y="228" width="6" height="6" />
		<rect x="96" y="228" width="6" height="6" />
		<rect x="108" y="228" width="6" height="6" />
		<rect x="120" y="228" width="6" height="6" />
		<rect x="132" y="228" width="6" height="6" />
		<rect x="144" y="228" width="6" height="6" />
		<rect x="168" y="228" width="6" height="6" />
		<rect x="180" y="228" width="6" height="6" />
		<rect x="192" y="228" width="6" height="6" />
		<rect x="216" y="228" width="6" height="6" />
		<rect x="228" y="228" width="6" height="6" />
		<rect x="240" y="228" width="6" height="6" />
		<rect x="246" y="228" width="6" height="6" />
		<rect x="0" y="234" width="6" height="6" />
		<rect x="36" y="234" width="6" height="6" />
		<rect x="48" y="234" width="6" height="6" />
		<rect x="54" y="234" width="6" height="6" />
		<rect x="60" y="234" width="6" height="6" />
		<rect x="66" y="234" width="6" height="6" />
		<rect x="90" y="234" width="6" height="6" />
		<rect x="102" y="234" width="6" height="6" />
		<rect x="120" y="234" width="6" height="6" />
		<rect x="144" y="234" width="6" height="6" />
		<rect x="156" y="234" width="6" height="6" />
		<rect x="162" y="234" width="6" height="6" />
		<rect x="180" y="234" width="6" height="6" />
		<rect x="186" y="234" width="6" height="6" />
		<rect x="198" y="234" width="6" height="6" />
		<rect x="210" y="234" width="6" height="6" />
		<rect x="216" y="234" width="6" height="6" />
		<rect x="240" y="234" width="6" height="6" />
		<rect x="252" y="234" width="6" height="6" />
		<rect x="0" y="240" width="6" height="6" />
		<rect x="12" y="240" width="6" height="6" />
		<rect x="18" y="240" width="6" height="6" />
		<rect x="24" y="240" width="6" height="6" />
		<rect x="36" y="240" width="6" height="6" />
		<rect x="54" y="240" width="6" height="6" />
		<rect x="60" y="240" width="6" height="6" />
		<rect x="78" y="240" width="6" height="6" />
		<rect x="84" y="240" width="6" height="6" />
		<rect x="102" y="240" width="6" height="6" />
		<rect x="108" y="240" width="6" height="6" />
		<rect x="120" y="240" width="6" height="6" />
		<rect x="126" y="240" width="6" height="6" />
		<rect x="132" y="240" width="6" height="6" />
		<rect x="138" y="240" width="6" height="6" />
		<rect x="144" y="240" width="6" height="6" />
		<rect x="150" y="240" width="6" height="6" />
		<rect x="156" y="240" width="6" height="6" />
		<rect x="168" y="240" width="6" height="6" />
		<rect x="192" y="240" width="6" height="6" />
		<rect x="204" y="240" width="6" height="6" />
		<rect x="216" y="240" width="6" height="6" />
		<rect x="222" y="240" width="6" height="6" />
		<rect x="228" y="240" width="6" height="6" />
		<rect x="234" y="240" width="6" height="6" />
		<rect x="240" y="240" width="6" height="6" />
		<rect x="246" y="240" width="6" height="6" />
		<rect x="258" y="240" width="6" height="6" />
		<rect x="264" y="240" width="6" height="6" />
		<rect x="0" y="246" width="6" height="6" />
		<rect x="12" y="246" width="6" height="6" />
		<rect x="18" y="246" width="6" height="6" />
		<rect x="24" y="246" width="6" height="6" />
		<rect x="36" y="246" width="6" height="6" />
		<rect x="48" y="246" width="6" height="6" />
		<rect x="54" y="246" width="6" height="6" />
		<rect x="66" y="246" width="6" height="6" />
		<rect x="72" y="246" width="6" height="6" />
		<rect x="84" y="246" width="6" height="6" />
		<rect x="90" y="246" width="6" height="6" />
		<rect x="102" y="246" width="6" height="6" />
		<rect x="108" y="246" width="6" height="6" />
		<rect x="114" y="246" width="6" height="6" />
		<rect x="144" y="246" width="6" height="6" />
		<rect x="150" y="246" width="6" height="6" />
		<rect x="174" y="246" width="6" height="6" />
		<rect x="192" y="246" width="6" height="6" />
		<rect x="222" y="246" width="6" height="6" />
		<rect x="228" y="246" width="6" height="6" />
		<rect x="258" y="246" width="6" height="6" />
		<rect x="0" y="252" width="6" height="6" />
		<rect x="12" y="252" width="6" height="6" />
		<rect x="18" y="252" width="6" height="6" />
		<rect x="24" y="252" width="6" height="6" />
		<rect x="36" y="252" width="6" height="6" />
		<rect x="48" y="252" width="6" height="6" />
		<rect x="54" y="252" width="6" height="6" />
		<rect x="60" y="252" width="6" height="6" />
		<rect x="72" y="252" width="6" height="6" />
		<rect x="78" y="252" width="6" height="6" />
		<rect x="84" y="252" width="6" height="6" />
		<rect x="96" y="252" width="6" height="6" />
		<rect x="114" y="252" width="6" height="6" />
		<rect x="120" y="252" width="6" height="6" />
		<rect x="138" y="252" width="6" height="6" />
		<rect x="144" y="252" width="6" height="6" />
		<rect x="162" y="252" width="6" height="6" />
		<rect x="186" y="252" width="6" height="6" />
		<rect x="198" y="252" width="6" height="6" />
		<rect x="210" y="252" width="6" height="6" />
		<rect x="234" y="252" width="6" height="6" />
		<rect x="240" y="252" width="6" height="6" />
		<rect x="246" y="252" width="6" height="6" />
		<rect x="252" y="252" width="6" height="6" />
		<rect x="0" y="258" width="6" height="6" />
		<rect x="36" y="258" width="6" height="6" />
		<rect x="60" y="258" width="6" height="6" />
		<rect x="66" y="258" width="6" height="6" />
		<rect x="84" y="258" width="6" height="6" />
		<rect x="108" y="258" width="6" height="6" />
		<rect x="120" y="258" width="6" height="6" />
		<rect x="132" y="258" width="6" height="6" />
		<rect x="180" y="258" width="6" height="6" />
		<rect x="192" y="258" width="6" height="6" />
		<rect x="198" y="258" width="6" height="6" />
		<rect x="204" y="258" width="6" height="6" />
		<rect x="234" y="258" width="6" height="6" />
		<rect x="246" y="258" width="6" height="6" />
		<rect x="0" y="264" width="6" height="6" />
		<rect x="6" y="264" width="6" height="6" />
		<rect x="12" y="264" width="6" height="6" />
		<rect x="18" y="264" width="6" height="6" />
		<rect x="24" y="264" width="6" height="6" />
		<rect x="30" y="264" width="6" height="6" />
		<rect x="36" y="264" width="6" height="6" />
		<rect x="48" y="264" width="6" height="6" />
		<rect x="54" y="264" width="6" height="6" />
		<rect x="60" y="264" width="6" height="6" />
		<rect x="66" y="264" width="6" height="6" />
		<rect x="78" y="264" width="6" height="6" />
		<rect x="90" y="264" width="6" height="6" />
		<rect x="96" y="264" width="6" height="6" />
		<rect x="138" y="264" width="6" height="6" />
		<rect x="150" y="264" width="6" height="6" />
		<rect x="168" y="264" width="6" height="6" />
		<rect x="180" y="264" width="6" height="6" />
		<rect x="186" y="264" width="6" height="6" />
		<rect x="198" y="264" width="6" height="6" />
		<rect x="204" y="264" width="6" height="6" />
		<rect x="210" y="264" width="6" height="6" />
		<rect x="222" y="264" width="6" height="6" />
		<rect x="228" y="264" width="6" height="6" />
		<rect x="240" y="264" width="6" height="6" />
		<rect x="246" y="264" width="6" height="6" />
		<rect x="252" y="264" width="6" height="6" />
		<rect x="258" y="264" width="6" height="6" />
	</g>
</svg>
